<mxfile host="Electron" modified="2024-12-15T17:12:04.687Z" agent="Mozilla/5.0 (Windows NT 10.0; Win64; x64) AppleWebKit/537.36 (KHTML, like Gecko) draw.io/24.1.0 Chrome/120.0.6099.109 Electron/28.1.0 Safari/537.36" etag="96adAG2NBVFPcEHeBe5n" version="24.1.0" type="device">
  <diagram name="Page-1" id="lfO5QWA8s9p3MNFMz8GE">
    <mxGraphModel dx="1730" dy="532" grid="1" gridSize="10" guides="1" tooltips="1" connect="1" arrows="1" fold="1" page="1" pageScale="1" pageWidth="850" pageHeight="1100" math="0" shadow="0">
      <root>
        <mxCell id="0" />
        <mxCell id="1" parent="0" />
        <mxCell id="0v_wOJQzlhhhtUlomyw2-54" style="edgeStyle=orthogonalEdgeStyle;rounded=0;orthogonalLoop=1;jettySize=auto;html=1;exitX=0.75;exitY=0;exitDx=0;exitDy=0;entryX=1;entryY=1;entryDx=0;entryDy=0;" parent="1" source="0v_wOJQzlhhhtUlomyw2-1" target="0v_wOJQzlhhhtUlomyw2-4" edge="1">
          <mxGeometry relative="1" as="geometry" />
        </mxCell>
        <mxCell id="0v_wOJQzlhhhtUlomyw2-55" style="edgeStyle=orthogonalEdgeStyle;rounded=0;orthogonalLoop=1;jettySize=auto;html=1;exitX=0.25;exitY=0;exitDx=0;exitDy=0;entryX=1;entryY=0.5;entryDx=0;entryDy=0;" parent="1" source="0v_wOJQzlhhhtUlomyw2-1" target="0v_wOJQzlhhhtUlomyw2-2" edge="1">
          <mxGeometry relative="1" as="geometry" />
        </mxCell>
        <mxCell id="0v_wOJQzlhhhtUlomyw2-57" style="edgeStyle=orthogonalEdgeStyle;rounded=0;orthogonalLoop=1;jettySize=auto;html=1;exitX=0.25;exitY=1;exitDx=0;exitDy=0;entryX=0.5;entryY=0;entryDx=0;entryDy=0;" parent="1" source="0v_wOJQzlhhhtUlomyw2-1" target="0v_wOJQzlhhhtUlomyw2-3" edge="1">
          <mxGeometry relative="1" as="geometry" />
        </mxCell>
        <mxCell id="0v_wOJQzlhhhtUlomyw2-58" style="edgeStyle=orthogonalEdgeStyle;rounded=0;orthogonalLoop=1;jettySize=auto;html=1;exitX=0;exitY=0.25;exitDx=0;exitDy=0;entryX=0.5;entryY=0;entryDx=0;entryDy=0;" parent="1" source="0v_wOJQzlhhhtUlomyw2-1" target="0v_wOJQzlhhhtUlomyw2-5" edge="1">
          <mxGeometry relative="1" as="geometry" />
        </mxCell>
        <mxCell id="0v_wOJQzlhhhtUlomyw2-1" value="&lt;span style=&quot;font-weight: 700; text-wrap: nowrap;&quot;&gt;&lt;i&gt;&lt;font style=&quot;font-size: 14px;&quot;&gt;Users&lt;/font&gt;&lt;/i&gt;&lt;/span&gt;" style="whiteSpace=wrap;html=1;align=center;" parent="1" vertex="1">
          <mxGeometry x="72.5" y="270" width="100" height="40" as="geometry" />
        </mxCell>
        <mxCell id="0v_wOJQzlhhhtUlomyw2-2" value="&lt;span style=&quot;font-weight: 700; text-align: left; text-wrap: nowrap;&quot;&gt;User ID&lt;/span&gt;" style="ellipse;whiteSpace=wrap;html=1;align=center;fontStyle=4;" parent="1" vertex="1">
          <mxGeometry x="-10" y="235" width="70" height="30" as="geometry" />
        </mxCell>
        <mxCell id="0v_wOJQzlhhhtUlomyw2-3" value="&lt;span style=&quot;text-align: left; text-wrap: nowrap;&quot;&gt;password&lt;/span&gt;" style="ellipse;whiteSpace=wrap;html=1;align=center;" parent="1" vertex="1">
          <mxGeometry x="60" y="350" width="80" height="40" as="geometry" />
        </mxCell>
        <mxCell id="0v_wOJQzlhhhtUlomyw2-4" value="&lt;span style=&quot;text-align: left; text-wrap: nowrap;&quot;&gt;user_name&lt;/span&gt;" style="ellipse;whiteSpace=wrap;html=1;align=center;" parent="1" vertex="1">
          <mxGeometry x="30" y="195" width="80" height="30" as="geometry" />
        </mxCell>
        <mxCell id="0v_wOJQzlhhhtUlomyw2-5" value="&lt;span style=&quot;text-align: left; text-wrap: nowrap;&quot;&gt;email&lt;/span&gt;" style="ellipse;whiteSpace=wrap;html=1;align=center;" parent="1" vertex="1">
          <mxGeometry x="-5" y="317.5" width="70" height="35" as="geometry" />
        </mxCell>
        <mxCell id="0v_wOJQzlhhhtUlomyw2-68" style="edgeStyle=orthogonalEdgeStyle;rounded=0;orthogonalLoop=1;jettySize=auto;html=1;exitX=0;exitY=0.25;exitDx=0;exitDy=0;entryX=1;entryY=1;entryDx=0;entryDy=0;" parent="1" source="0v_wOJQzlhhhtUlomyw2-10" target="0v_wOJQzlhhhtUlomyw2-15" edge="1">
          <mxGeometry relative="1" as="geometry" />
        </mxCell>
        <mxCell id="I0zVNPoHtymtXaUoH6AD-1" style="edgeStyle=orthogonalEdgeStyle;rounded=0;orthogonalLoop=1;jettySize=auto;html=1;exitX=0.75;exitY=0;exitDx=0;exitDy=0;entryX=0;entryY=1;entryDx=0;entryDy=0;" parent="1" source="0v_wOJQzlhhhtUlomyw2-10" target="0v_wOJQzlhhhtUlomyw2-11" edge="1">
          <mxGeometry relative="1" as="geometry" />
        </mxCell>
        <mxCell id="I0zVNPoHtymtXaUoH6AD-65" style="edgeStyle=orthogonalEdgeStyle;rounded=0;orthogonalLoop=1;jettySize=auto;html=1;exitX=0.75;exitY=1;exitDx=0;exitDy=0;entryX=0.5;entryY=0;entryDx=0;entryDy=0;" parent="1" source="0v_wOJQzlhhhtUlomyw2-10" target="0v_wOJQzlhhhtUlomyw2-12" edge="1">
          <mxGeometry relative="1" as="geometry" />
        </mxCell>
        <mxCell id="I0zVNPoHtymtXaUoH6AD-66" style="edgeStyle=orthogonalEdgeStyle;rounded=0;orthogonalLoop=1;jettySize=auto;html=1;exitX=0;exitY=0.75;exitDx=0;exitDy=0;entryX=1;entryY=0.5;entryDx=0;entryDy=0;" parent="1" source="0v_wOJQzlhhhtUlomyw2-10" target="0v_wOJQzlhhhtUlomyw2-14" edge="1">
          <mxGeometry relative="1" as="geometry" />
        </mxCell>
        <mxCell id="I0zVNPoHtymtXaUoH6AD-67" style="edgeStyle=orthogonalEdgeStyle;rounded=0;orthogonalLoop=1;jettySize=auto;html=1;exitX=0.25;exitY=1;exitDx=0;exitDy=0;entryX=1;entryY=0;entryDx=0;entryDy=0;" parent="1" source="0v_wOJQzlhhhtUlomyw2-10" target="0v_wOJQzlhhhtUlomyw2-16" edge="1">
          <mxGeometry relative="1" as="geometry" />
        </mxCell>
        <mxCell id="0v_wOJQzlhhhtUlomyw2-10" value="&lt;span style=&quot;font-weight: 700; text-wrap: nowrap;&quot;&gt;Drivers&lt;/span&gt;" style="whiteSpace=wrap;html=1;align=center;" parent="1" vertex="1">
          <mxGeometry x="95" y="80" width="100" height="40" as="geometry" />
        </mxCell>
        <mxCell id="0v_wOJQzlhhhtUlomyw2-11" value="&lt;span style=&quot;text-align: left; text-wrap: nowrap;&quot;&gt;Status&amp;nbsp;&lt;/span&gt;" style="ellipse;whiteSpace=wrap;html=1;align=center;" parent="1" vertex="1">
          <mxGeometry x="200" y="10" width="75" height="40" as="geometry" />
        </mxCell>
        <mxCell id="0v_wOJQzlhhhtUlomyw2-12" value="&lt;span style=&quot;text-align: left; text-wrap: nowrap;&quot;&gt;Contact_num&amp;nbsp;&lt;/span&gt;" style="ellipse;whiteSpace=wrap;html=1;align=center;" parent="1" vertex="1">
          <mxGeometry x="120" y="140" width="90" height="30" as="geometry" />
        </mxCell>
        <mxCell id="0v_wOJQzlhhhtUlomyw2-13" value="&lt;span style=&quot;text-align: left; text-wrap: nowrap;&quot;&gt;License_num&lt;/span&gt;" style="ellipse;whiteSpace=wrap;html=1;align=center;" parent="1" vertex="1">
          <mxGeometry x="100" y="5" width="90" height="40" as="geometry" />
        </mxCell>
        <mxCell id="0v_wOJQzlhhhtUlomyw2-14" value="&lt;span style=&quot;text-align: left; text-wrap: nowrap;&quot;&gt;driver_Lname&lt;/span&gt;" style="ellipse;whiteSpace=wrap;html=1;align=center;" parent="1" vertex="1">
          <mxGeometry x="-10" y="85" width="90" height="40" as="geometry" />
        </mxCell>
        <mxCell id="0v_wOJQzlhhhtUlomyw2-15" value="&lt;span style=&quot;text-align: left; text-wrap: nowrap;&quot;&gt;driver_Fname&lt;/span&gt;" style="ellipse;whiteSpace=wrap;html=1;align=center;" parent="1" vertex="1">
          <mxGeometry y="10" width="90" height="40" as="geometry" />
        </mxCell>
        <mxCell id="0v_wOJQzlhhhtUlomyw2-16" value="&lt;span style=&quot;font-weight: 700; text-align: left; text-wrap: nowrap;&quot;&gt;Driver ID&lt;/span&gt;" style="ellipse;whiteSpace=wrap;html=1;align=center;fontStyle=4;" parent="1" vertex="1">
          <mxGeometry x="30" y="140" width="80" height="40" as="geometry" />
        </mxCell>
        <mxCell id="0v_wOJQzlhhhtUlomyw2-87" style="edgeStyle=orthogonalEdgeStyle;rounded=0;orthogonalLoop=1;jettySize=auto;html=1;exitX=0.25;exitY=0;exitDx=0;exitDy=0;entryX=0.5;entryY=1;entryDx=0;entryDy=0;" parent="1" source="0v_wOJQzlhhhtUlomyw2-17" target="0v_wOJQzlhhhtUlomyw2-86" edge="1">
          <mxGeometry relative="1" as="geometry" />
        </mxCell>
        <mxCell id="0v_wOJQzlhhhtUlomyw2-90" style="edgeStyle=orthogonalEdgeStyle;rounded=0;orthogonalLoop=1;jettySize=auto;html=1;exitX=1;exitY=0.25;exitDx=0;exitDy=0;entryX=0;entryY=0.5;entryDx=0;entryDy=0;" parent="1" source="0v_wOJQzlhhhtUlomyw2-17" target="0v_wOJQzlhhhtUlomyw2-85" edge="1">
          <mxGeometry relative="1" as="geometry" />
        </mxCell>
        <mxCell id="I0zVNPoHtymtXaUoH6AD-60" style="edgeStyle=orthogonalEdgeStyle;rounded=0;orthogonalLoop=1;jettySize=auto;html=1;exitX=0.5;exitY=0;exitDx=0;exitDy=0;entryX=0;entryY=0.5;entryDx=0;entryDy=0;" parent="1" source="0v_wOJQzlhhhtUlomyw2-17" target="0v_wOJQzlhhhtUlomyw2-83" edge="1">
          <mxGeometry relative="1" as="geometry" />
        </mxCell>
        <mxCell id="I0zVNPoHtymtXaUoH6AD-63" style="edgeStyle=orthogonalEdgeStyle;rounded=0;orthogonalLoop=1;jettySize=auto;html=1;exitX=0.75;exitY=0;exitDx=0;exitDy=0;entryX=0;entryY=0.5;entryDx=0;entryDy=0;" parent="1" source="0v_wOJQzlhhhtUlomyw2-17" target="0v_wOJQzlhhhtUlomyw2-84" edge="1">
          <mxGeometry relative="1" as="geometry" />
        </mxCell>
        <mxCell id="0v_wOJQzlhhhtUlomyw2-17" value="&lt;span style=&quot;font-weight: 700; text-wrap: nowrap;&quot;&gt;Fuel_Records&lt;/span&gt;" style="whiteSpace=wrap;html=1;align=center;" parent="1" vertex="1">
          <mxGeometry x="650" y="90" width="100" height="40" as="geometry" />
        </mxCell>
        <mxCell id="0v_wOJQzlhhhtUlomyw2-78" style="edgeStyle=orthogonalEdgeStyle;rounded=0;orthogonalLoop=1;jettySize=auto;html=1;exitX=0.25;exitY=0;exitDx=0;exitDy=0;entryX=0.5;entryY=1;entryDx=0;entryDy=0;" parent="1" source="0v_wOJQzlhhhtUlomyw2-18" target="0v_wOJQzlhhhtUlomyw2-76" edge="1">
          <mxGeometry relative="1" as="geometry" />
        </mxCell>
        <mxCell id="0v_wOJQzlhhhtUlomyw2-80" style="edgeStyle=orthogonalEdgeStyle;rounded=0;orthogonalLoop=1;jettySize=auto;html=1;exitX=0.5;exitY=0;exitDx=0;exitDy=0;entryX=0.5;entryY=1;entryDx=0;entryDy=0;" parent="1" source="0v_wOJQzlhhhtUlomyw2-18" target="0v_wOJQzlhhhtUlomyw2-73" edge="1">
          <mxGeometry relative="1" as="geometry" />
        </mxCell>
        <mxCell id="0v_wOJQzlhhhtUlomyw2-82" style="edgeStyle=orthogonalEdgeStyle;rounded=0;orthogonalLoop=1;jettySize=auto;html=1;exitX=1;exitY=0.25;exitDx=0;exitDy=0;entryX=0;entryY=1;entryDx=0;entryDy=0;" parent="1" source="0v_wOJQzlhhhtUlomyw2-18" target="0v_wOJQzlhhhtUlomyw2-74" edge="1">
          <mxGeometry relative="1" as="geometry" />
        </mxCell>
        <mxCell id="I0zVNPoHtymtXaUoH6AD-64" style="edgeStyle=orthogonalEdgeStyle;rounded=0;orthogonalLoop=1;jettySize=auto;html=1;exitX=0;exitY=0;exitDx=0;exitDy=0;entryX=1;entryY=1;entryDx=0;entryDy=0;" parent="1" source="0v_wOJQzlhhhtUlomyw2-18" target="0v_wOJQzlhhhtUlomyw2-75" edge="1">
          <mxGeometry relative="1" as="geometry" />
        </mxCell>
        <mxCell id="0v_wOJQzlhhhtUlomyw2-18" value="&lt;span style=&quot;font-weight: 700; text-wrap: nowrap;&quot;&gt;Bookings&lt;/span&gt;" style="whiteSpace=wrap;html=1;align=center;" parent="1" vertex="1">
          <mxGeometry x="410" y="120" width="100" height="40" as="geometry" />
        </mxCell>
        <mxCell id="I0zVNPoHtymtXaUoH6AD-22" style="edgeStyle=orthogonalEdgeStyle;rounded=0;orthogonalLoop=1;jettySize=auto;html=1;exitX=1;exitY=0.25;exitDx=0;exitDy=0;entryX=0;entryY=0.5;entryDx=0;entryDy=0;" parent="1" source="0v_wOJQzlhhhtUlomyw2-19" target="I0zVNPoHtymtXaUoH6AD-8" edge="1">
          <mxGeometry relative="1" as="geometry" />
        </mxCell>
        <mxCell id="I0zVNPoHtymtXaUoH6AD-26" style="edgeStyle=orthogonalEdgeStyle;rounded=0;orthogonalLoop=1;jettySize=auto;html=1;exitX=0.25;exitY=1;exitDx=0;exitDy=0;" parent="1" source="0v_wOJQzlhhhtUlomyw2-19" target="I0zVNPoHtymtXaUoH6AD-2" edge="1">
          <mxGeometry relative="1" as="geometry" />
        </mxCell>
        <mxCell id="I0zVNPoHtymtXaUoH6AD-57" style="edgeStyle=orthogonalEdgeStyle;rounded=0;orthogonalLoop=1;jettySize=auto;html=1;exitX=1;exitY=0;exitDx=0;exitDy=0;entryX=0;entryY=0.5;entryDx=0;entryDy=0;" parent="1" source="0v_wOJQzlhhhtUlomyw2-19" target="I0zVNPoHtymtXaUoH6AD-7" edge="1">
          <mxGeometry relative="1" as="geometry" />
        </mxCell>
        <mxCell id="I0zVNPoHtymtXaUoH6AD-58" style="edgeStyle=orthogonalEdgeStyle;rounded=0;orthogonalLoop=1;jettySize=auto;html=1;exitX=0.75;exitY=0;exitDx=0;exitDy=0;entryX=0;entryY=0.5;entryDx=0;entryDy=0;" parent="1" source="0v_wOJQzlhhhtUlomyw2-19" target="I0zVNPoHtymtXaUoH6AD-5" edge="1">
          <mxGeometry relative="1" as="geometry" />
        </mxCell>
        <mxCell id="I0zVNPoHtymtXaUoH6AD-59" style="edgeStyle=orthogonalEdgeStyle;rounded=0;orthogonalLoop=1;jettySize=auto;html=1;exitX=0.5;exitY=0;exitDx=0;exitDy=0;entryX=0;entryY=0.5;entryDx=0;entryDy=0;" parent="1" source="0v_wOJQzlhhhtUlomyw2-19" target="I0zVNPoHtymtXaUoH6AD-4" edge="1">
          <mxGeometry relative="1" as="geometry" />
        </mxCell>
        <mxCell id="I0zVNPoHtymtXaUoH6AD-82" style="edgeStyle=orthogonalEdgeStyle;rounded=0;orthogonalLoop=1;jettySize=auto;html=1;exitX=0.25;exitY=0;exitDx=0;exitDy=0;entryX=0;entryY=1;entryDx=0;entryDy=0;" parent="1" source="0v_wOJQzlhhhtUlomyw2-19" target="I0zVNPoHtymtXaUoH6AD-3" edge="1">
          <mxGeometry relative="1" as="geometry" />
        </mxCell>
        <mxCell id="I0zVNPoHtymtXaUoH6AD-91" style="edgeStyle=orthogonalEdgeStyle;rounded=0;orthogonalLoop=1;jettySize=auto;html=1;exitX=0.5;exitY=1;exitDx=0;exitDy=0;entryX=0.5;entryY=0;entryDx=0;entryDy=0;" parent="1" source="0v_wOJQzlhhhtUlomyw2-19" target="I0zVNPoHtymtXaUoH6AD-9" edge="1">
          <mxGeometry relative="1" as="geometry" />
        </mxCell>
        <mxCell id="0v_wOJQzlhhhtUlomyw2-19" value="&lt;span style=&quot;font-weight: 700; text-wrap: nowrap;&quot;&gt;Vehicles&lt;/span&gt;" style="whiteSpace=wrap;html=1;align=center;" parent="1" vertex="1">
          <mxGeometry x="670" y="317.5" width="100" height="40" as="geometry" />
        </mxCell>
        <mxCell id="I0zVNPoHtymtXaUoH6AD-38" style="edgeStyle=orthogonalEdgeStyle;rounded=0;orthogonalLoop=1;jettySize=auto;html=1;exitX=1;exitY=0.5;exitDx=0;exitDy=0;entryX=0;entryY=0.5;entryDx=0;entryDy=0;" parent="1" source="0v_wOJQzlhhhtUlomyw2-20" target="I0zVNPoHtymtXaUoH6AD-37" edge="1">
          <mxGeometry relative="1" as="geometry" />
        </mxCell>
        <mxCell id="I0zVNPoHtymtXaUoH6AD-41" style="edgeStyle=orthogonalEdgeStyle;rounded=0;orthogonalLoop=1;jettySize=auto;html=1;exitX=0.25;exitY=1;exitDx=0;exitDy=0;entryX=1;entryY=0;entryDx=0;entryDy=0;" parent="1" source="0v_wOJQzlhhhtUlomyw2-20" target="I0zVNPoHtymtXaUoH6AD-33" edge="1">
          <mxGeometry relative="1" as="geometry" />
        </mxCell>
        <mxCell id="I0zVNPoHtymtXaUoH6AD-42" style="edgeStyle=orthogonalEdgeStyle;rounded=0;orthogonalLoop=1;jettySize=auto;html=1;exitX=0;exitY=0.75;exitDx=0;exitDy=0;entryX=1;entryY=0;entryDx=0;entryDy=0;" parent="1" source="0v_wOJQzlhhhtUlomyw2-20" target="I0zVNPoHtymtXaUoH6AD-35" edge="1">
          <mxGeometry relative="1" as="geometry" />
        </mxCell>
        <mxCell id="-fjoa5okDDiZ3w63TC8B-5" style="edgeStyle=orthogonalEdgeStyle;rounded=0;orthogonalLoop=1;jettySize=auto;html=1;exitX=1;exitY=0.75;exitDx=0;exitDy=0;entryX=0;entryY=0.5;entryDx=0;entryDy=0;" edge="1" parent="1" source="0v_wOJQzlhhhtUlomyw2-20" target="I0zVNPoHtymtXaUoH6AD-36">
          <mxGeometry relative="1" as="geometry" />
        </mxCell>
        <mxCell id="-fjoa5okDDiZ3w63TC8B-6" style="edgeStyle=orthogonalEdgeStyle;rounded=0;orthogonalLoop=1;jettySize=auto;html=1;exitX=0.75;exitY=1;exitDx=0;exitDy=0;entryX=0.5;entryY=0;entryDx=0;entryDy=0;" edge="1" parent="1" source="0v_wOJQzlhhhtUlomyw2-20" target="I0zVNPoHtymtXaUoH6AD-34">
          <mxGeometry relative="1" as="geometry" />
        </mxCell>
        <mxCell id="0v_wOJQzlhhhtUlomyw2-20" value="&lt;span style=&quot;font-weight: 700; text-wrap: nowrap;&quot;&gt;Geo_Fences&lt;/span&gt;" style="whiteSpace=wrap;html=1;align=center;" parent="1" vertex="1">
          <mxGeometry x="290" y="440" width="100" height="40" as="geometry" />
        </mxCell>
        <mxCell id="0v_wOJQzlhhhtUlomyw2-65" style="edgeStyle=orthogonalEdgeStyle;rounded=0;orthogonalLoop=1;jettySize=auto;html=1;exitX=0.25;exitY=1;exitDx=0;exitDy=0;entryX=0.5;entryY=0;entryDx=0;entryDy=0;" parent="1" source="0v_wOJQzlhhhtUlomyw2-21" target="0v_wOJQzlhhhtUlomyw2-59" edge="1">
          <mxGeometry relative="1" as="geometry" />
        </mxCell>
        <mxCell id="I0zVNPoHtymtXaUoH6AD-53" style="edgeStyle=orthogonalEdgeStyle;rounded=0;orthogonalLoop=1;jettySize=auto;html=1;exitX=0;exitY=1;exitDx=0;exitDy=0;entryX=0.5;entryY=0;entryDx=0;entryDy=0;" parent="1" source="0v_wOJQzlhhhtUlomyw2-21" target="0v_wOJQzlhhhtUlomyw2-60" edge="1">
          <mxGeometry relative="1" as="geometry" />
        </mxCell>
        <mxCell id="I0zVNPoHtymtXaUoH6AD-54" style="edgeStyle=orthogonalEdgeStyle;rounded=0;orthogonalLoop=1;jettySize=auto;html=1;exitX=0;exitY=0.5;exitDx=0;exitDy=0;entryX=1;entryY=0.5;entryDx=0;entryDy=0;" parent="1" source="0v_wOJQzlhhhtUlomyw2-21" target="0v_wOJQzlhhhtUlomyw2-62" edge="1">
          <mxGeometry relative="1" as="geometry" />
        </mxCell>
        <mxCell id="I0zVNPoHtymtXaUoH6AD-55" style="edgeStyle=orthogonalEdgeStyle;rounded=0;orthogonalLoop=1;jettySize=auto;html=1;exitX=0.75;exitY=1;exitDx=0;exitDy=0;entryX=0;entryY=0;entryDx=0;entryDy=0;" parent="1" source="0v_wOJQzlhhhtUlomyw2-21" target="0v_wOJQzlhhhtUlomyw2-61" edge="1">
          <mxGeometry relative="1" as="geometry" />
        </mxCell>
        <mxCell id="0v_wOJQzlhhhtUlomyw2-21" value="&lt;span style=&quot;font-weight: 700; text-wrap: nowrap;&quot;&gt;&lt;i&gt;&lt;font style=&quot;font-size: 14px;&quot;&gt;Reports&lt;/font&gt;&lt;/i&gt;&lt;/span&gt;" style="whiteSpace=wrap;html=1;align=center;" parent="1" vertex="1">
          <mxGeometry x="90" y="400" width="100" height="40" as="geometry" />
        </mxCell>
        <mxCell id="I0zVNPoHtymtXaUoH6AD-48" style="edgeStyle=orthogonalEdgeStyle;rounded=0;orthogonalLoop=1;jettySize=auto;html=1;exitX=0.5;exitY=0;exitDx=0;exitDy=0;" parent="1" source="0v_wOJQzlhhhtUlomyw2-22" target="I0zVNPoHtymtXaUoH6AD-44" edge="1">
          <mxGeometry relative="1" as="geometry" />
        </mxCell>
        <mxCell id="I0zVNPoHtymtXaUoH6AD-77" style="edgeStyle=orthogonalEdgeStyle;rounded=0;orthogonalLoop=1;jettySize=auto;html=1;exitX=0;exitY=0.25;exitDx=0;exitDy=0;entryX=0;entryY=0;entryDx=0;entryDy=0;" parent="1" source="0v_wOJQzlhhhtUlomyw2-22" target="I0zVNPoHtymtXaUoH6AD-46" edge="1">
          <mxGeometry relative="1" as="geometry" />
        </mxCell>
        <mxCell id="0v_wOJQzlhhhtUlomyw2-22" value="&lt;span style=&quot;font-weight: 700; text-wrap: nowrap;&quot;&gt;Maintenance_Tasks&lt;/span&gt;" style="whiteSpace=wrap;html=1;align=center;" parent="1" vertex="1">
          <mxGeometry x="327.5" y="330" width="130" height="40" as="geometry" />
        </mxCell>
        <mxCell id="I0zVNPoHtymtXaUoH6AD-30" style="edgeStyle=orthogonalEdgeStyle;rounded=0;orthogonalLoop=1;jettySize=auto;html=1;exitX=0.25;exitY=1;exitDx=0;exitDy=0;entryX=0.5;entryY=0;entryDx=0;entryDy=0;" parent="1" source="0v_wOJQzlhhhtUlomyw2-23" target="I0zVNPoHtymtXaUoH6AD-27" edge="1">
          <mxGeometry relative="1" as="geometry" />
        </mxCell>
        <mxCell id="I0zVNPoHtymtXaUoH6AD-31" style="edgeStyle=orthogonalEdgeStyle;rounded=0;orthogonalLoop=1;jettySize=auto;html=1;exitX=0.75;exitY=1;exitDx=0;exitDy=0;entryX=0;entryY=0;entryDx=0;entryDy=0;" parent="1" source="0v_wOJQzlhhhtUlomyw2-23" target="I0zVNPoHtymtXaUoH6AD-28" edge="1">
          <mxGeometry relative="1" as="geometry" />
        </mxCell>
        <mxCell id="I0zVNPoHtymtXaUoH6AD-32" style="edgeStyle=orthogonalEdgeStyle;rounded=0;orthogonalLoop=1;jettySize=auto;html=1;exitX=1;exitY=0.75;exitDx=0;exitDy=0;entryX=0;entryY=0.5;entryDx=0;entryDy=0;" parent="1" source="0v_wOJQzlhhhtUlomyw2-23" target="I0zVNPoHtymtXaUoH6AD-29" edge="1">
          <mxGeometry relative="1" as="geometry" />
        </mxCell>
        <mxCell id="0v_wOJQzlhhhtUlomyw2-23" value="&lt;span style=&quot;font-weight: 700; text-wrap: nowrap;&quot;&gt;Geo_Fence_Events&lt;/span&gt;" style="whiteSpace=wrap;html=1;align=center;" parent="1" vertex="1">
          <mxGeometry x="570" y="450" width="140" height="40" as="geometry" />
        </mxCell>
        <mxCell id="0v_wOJQzlhhhtUlomyw2-24" style="edgeStyle=orthogonalEdgeStyle;rounded=0;orthogonalLoop=1;jettySize=auto;html=1;exitX=0.5;exitY=1;exitDx=0;exitDy=0;" parent="1" source="0v_wOJQzlhhhtUlomyw2-22" target="0v_wOJQzlhhhtUlomyw2-22" edge="1">
          <mxGeometry relative="1" as="geometry" />
        </mxCell>
        <mxCell id="0v_wOJQzlhhhtUlomyw2-25" value="&lt;b&gt;&lt;font style=&quot;font-size: 13px;&quot;&gt;drive&lt;/font&gt;&lt;/b&gt;" style="shape=rhombus;perimeter=rhombusPerimeter;whiteSpace=wrap;html=1;align=center;" parent="1" vertex="1">
          <mxGeometry x="245" y="80" width="120" height="60" as="geometry" />
        </mxCell>
        <mxCell id="0v_wOJQzlhhhtUlomyw2-29" value="&lt;b&gt;&lt;font style=&quot;font-size: 13px;&quot;&gt;create&lt;/font&gt;&lt;/b&gt;" style="shape=rhombus;perimeter=rhombusPerimeter;whiteSpace=wrap;html=1;align=center;" parent="1" vertex="1">
          <mxGeometry x="210" y="140" width="90" height="70" as="geometry" />
        </mxCell>
        <mxCell id="0v_wOJQzlhhhtUlomyw2-33" value="&lt;b&gt;&lt;font style=&quot;font-size: 13px;&quot;&gt;generate&lt;/font&gt;&lt;/b&gt;" style="shape=rhombus;perimeter=rhombusPerimeter;whiteSpace=wrap;html=1;align=center;" parent="1" vertex="1">
          <mxGeometry x="140" y="325" width="100" height="50" as="geometry" />
        </mxCell>
        <mxCell id="0v_wOJQzlhhhtUlomyw2-36" value="&lt;b&gt;&lt;font style=&quot;font-size: 13px;&quot;&gt;have&lt;/font&gt;&lt;/b&gt;" style="shape=rhombus;perimeter=rhombusPerimeter;whiteSpace=wrap;html=1;align=center;direction=east;" parent="1" vertex="1">
          <mxGeometry x="550" y="145" width="100" height="50" as="geometry" />
        </mxCell>
        <mxCell id="0v_wOJQzlhhhtUlomyw2-40" value="&lt;span style=&quot;font-size: 13px;&quot;&gt;&lt;b&gt;trigger event in&lt;/b&gt;&lt;/span&gt;" style="shape=rhombus;perimeter=rhombusPerimeter;whiteSpace=wrap;html=1;align=center;direction=south;" parent="1" vertex="1">
          <mxGeometry x="790" y="375" width="60" height="120" as="geometry" />
        </mxCell>
        <mxCell id="0v_wOJQzlhhhtUlomyw2-44" value="&lt;b&gt;&lt;font style=&quot;font-size: 13px;&quot;&gt;assigned to&lt;/font&gt;&lt;/b&gt;" style="shape=rhombus;perimeter=rhombusPerimeter;whiteSpace=wrap;html=1;align=center;" parent="1" vertex="1">
          <mxGeometry x="390" y="175" width="120" height="60" as="geometry" />
        </mxCell>
        <mxCell id="0v_wOJQzlhhhtUlomyw2-47" value="&lt;b&gt;&lt;font style=&quot;font-size: 13px;&quot;&gt;define&lt;/font&gt;&lt;/b&gt;" style="shape=rhombus;perimeter=rhombusPerimeter;whiteSpace=wrap;html=1;align=center;" parent="1" vertex="1">
          <mxGeometry x="440" y="380" width="120" height="60" as="geometry" />
        </mxCell>
        <mxCell id="0v_wOJQzlhhhtUlomyw2-50" value="&lt;b&gt;&lt;font style=&quot;font-size: 13px;&quot;&gt;require&lt;/font&gt;&lt;/b&gt;" style="shape=rhombus;perimeter=rhombusPerimeter;whiteSpace=wrap;html=1;align=center;" parent="1" vertex="1">
          <mxGeometry x="495" y="305" width="120" height="60" as="geometry" />
        </mxCell>
        <mxCell id="0v_wOJQzlhhhtUlomyw2-59" value="&lt;span style=&quot;text-align: left;&quot;&gt;report_data&lt;/span&gt;" style="ellipse;whiteSpace=wrap;html=1;align=center;" parent="1" vertex="1">
          <mxGeometry x="80" y="500" width="100" height="40" as="geometry" />
        </mxCell>
        <mxCell id="0v_wOJQzlhhhtUlomyw2-60" value="&lt;span style=&quot;text-align: left;&quot;&gt;generated_at&amp;nbsp;&lt;/span&gt;" style="ellipse;whiteSpace=wrap;html=1;align=center;" parent="1" vertex="1">
          <mxGeometry y="480" width="90" height="40" as="geometry" />
        </mxCell>
        <mxCell id="0v_wOJQzlhhhtUlomyw2-61" value="&lt;span style=&quot;text-align: left;&quot;&gt;report_type&lt;/span&gt;" style="ellipse;whiteSpace=wrap;html=1;align=center;" parent="1" vertex="1">
          <mxGeometry x="147.5" y="460" width="100" height="40" as="geometry" />
        </mxCell>
        <mxCell id="0v_wOJQzlhhhtUlomyw2-62" value="&lt;span style=&quot;font-weight: 700; text-align: left;&quot;&gt;Report_ID&lt;/span&gt;" style="ellipse;whiteSpace=wrap;html=1;align=center;fontStyle=4;" parent="1" vertex="1">
          <mxGeometry x="-10" y="400" width="80" height="40" as="geometry" />
        </mxCell>
        <mxCell id="0v_wOJQzlhhhtUlomyw2-71" style="edgeStyle=orthogonalEdgeStyle;rounded=0;orthogonalLoop=1;jettySize=auto;html=1;exitX=0.25;exitY=0;exitDx=0;exitDy=0;entryX=0.367;entryY=0.975;entryDx=0;entryDy=0;entryPerimeter=0;" parent="1" source="0v_wOJQzlhhhtUlomyw2-10" target="0v_wOJQzlhhhtUlomyw2-13" edge="1">
          <mxGeometry relative="1" as="geometry" />
        </mxCell>
        <mxCell id="0v_wOJQzlhhhtUlomyw2-73" value="&lt;span style=&quot;text-align: left;&quot;&gt;start_date&lt;/span&gt;" style="ellipse;whiteSpace=wrap;html=1;align=center;" parent="1" vertex="1">
          <mxGeometry x="490" y="10" width="70" height="40" as="geometry" />
        </mxCell>
        <mxCell id="0v_wOJQzlhhhtUlomyw2-74" value="&lt;span style=&quot;text-align: left;&quot;&gt;end_date&amp;nbsp;&lt;/span&gt;" style="ellipse;whiteSpace=wrap;html=1;align=center;" parent="1" vertex="1">
          <mxGeometry x="530" y="60" width="80" height="30" as="geometry" />
        </mxCell>
        <mxCell id="0v_wOJQzlhhhtUlomyw2-75" value="&lt;span style=&quot;text-align: left;&quot;&gt;status&lt;/span&gt;" style="ellipse;whiteSpace=wrap;html=1;align=center;" parent="1" vertex="1">
          <mxGeometry x="300" y="20" width="80" height="30" as="geometry" />
        </mxCell>
        <mxCell id="0v_wOJQzlhhhtUlomyw2-76" value="&lt;span style=&quot;font-weight: 700; text-align: left;&quot;&gt;Booking_ID&amp;nbsp;&lt;/span&gt;" style="ellipse;whiteSpace=wrap;html=1;align=center;fontStyle=4;" parent="1" vertex="1">
          <mxGeometry x="390" y="10" width="90" height="40" as="geometry" />
        </mxCell>
        <mxCell id="0v_wOJQzlhhhtUlomyw2-83" value="&lt;span style=&quot;text-align: left;&quot;&gt;quantity&amp;nbsp;&lt;/span&gt;" style="ellipse;whiteSpace=wrap;html=1;align=center;" parent="1" vertex="1">
          <mxGeometry x="790" y="30" width="80" height="30" as="geometry" />
        </mxCell>
        <mxCell id="0v_wOJQzlhhhtUlomyw2-84" value="&lt;span style=&quot;text-align: left;&quot;&gt;cost&lt;/span&gt;" style="ellipse;whiteSpace=wrap;html=1;align=center;" parent="1" vertex="1">
          <mxGeometry x="790" y="70" width="70" height="30" as="geometry" />
        </mxCell>
        <mxCell id="0v_wOJQzlhhhtUlomyw2-85" value="&lt;span style=&quot;text-align: left;&quot;&gt;refueling_date&lt;/span&gt;" style="ellipse;whiteSpace=wrap;html=1;align=center;" parent="1" vertex="1">
          <mxGeometry x="790" y="110" width="90" height="40" as="geometry" />
        </mxCell>
        <mxCell id="0v_wOJQzlhhhtUlomyw2-86" value="&lt;span style=&quot;font-weight: 700; text-align: left;&quot;&gt;Record_ID&lt;/span&gt;" style="ellipse;whiteSpace=wrap;html=1;align=center;fontStyle=4;" parent="1" vertex="1">
          <mxGeometry x="630" y="10" width="90" height="30" as="geometry" />
        </mxCell>
        <mxCell id="I0zVNPoHtymtXaUoH6AD-2" value="&lt;span style=&quot;text-align: left; text-wrap: nowrap;&quot;&gt;status&amp;nbsp;&lt;/span&gt;" style="ellipse;whiteSpace=wrap;html=1;align=center;" parent="1" vertex="1">
          <mxGeometry x="600" y="385" width="70" height="40" as="geometry" />
        </mxCell>
        <mxCell id="I0zVNPoHtymtXaUoH6AD-3" value="&lt;span style=&quot;text-align: left; text-wrap: nowrap;&quot;&gt;registration_num&amp;nbsp;&lt;/span&gt;" style="ellipse;whiteSpace=wrap;html=1;align=center;" parent="1" vertex="1">
          <mxGeometry x="690" y="155" width="100" height="40" as="geometry" />
        </mxCell>
        <mxCell id="I0zVNPoHtymtXaUoH6AD-4" value="&lt;span style=&quot;text-align: left; text-wrap: nowrap;&quot;&gt;year&amp;nbsp;&lt;/span&gt;" style="ellipse;whiteSpace=wrap;html=1;align=center;" parent="1" vertex="1">
          <mxGeometry x="790" y="190" width="60" height="30" as="geometry" />
        </mxCell>
        <mxCell id="I0zVNPoHtymtXaUoH6AD-5" value="&lt;span style=&quot;text-align: left; text-wrap: nowrap;&quot;&gt;model&lt;/span&gt;" style="ellipse;whiteSpace=wrap;html=1;align=center;" parent="1" vertex="1">
          <mxGeometry x="815" y="220" width="65" height="30" as="geometry" />
        </mxCell>
        <mxCell id="I0zVNPoHtymtXaUoH6AD-7" value="&lt;span style=&quot;text-align: left; text-wrap: nowrap;&quot;&gt;made&amp;nbsp;&lt;/span&gt;" style="ellipse;whiteSpace=wrap;html=1;align=center;" parent="1" vertex="1">
          <mxGeometry x="815" y="255" width="60" height="40" as="geometry" />
        </mxCell>
        <mxCell id="I0zVNPoHtymtXaUoH6AD-8" value="&lt;span style=&quot;text-align: left; text-wrap: nowrap;&quot;&gt;name&lt;/span&gt;" style="ellipse;whiteSpace=wrap;html=1;align=center;" parent="1" vertex="1">
          <mxGeometry x="810" y="300" width="70" height="30" as="geometry" />
        </mxCell>
        <mxCell id="I0zVNPoHtymtXaUoH6AD-9" value="&lt;span style=&quot;font-weight: 700; text-align: left; text-wrap: nowrap;&quot;&gt;Vehicle_ID&lt;/span&gt;" style="ellipse;whiteSpace=wrap;html=1;align=center;fontStyle=4;" parent="1" vertex="1">
          <mxGeometry x="675" y="400" width="75" height="40" as="geometry" />
        </mxCell>
        <mxCell id="I0zVNPoHtymtXaUoH6AD-27" value="&lt;span style=&quot;text-align: left;&quot;&gt;event_datetime&lt;/span&gt;" style="ellipse;whiteSpace=wrap;html=1;align=center;" parent="1" vertex="1">
          <mxGeometry x="550" y="520" width="100" height="40" as="geometry" />
        </mxCell>
        <mxCell id="I0zVNPoHtymtXaUoH6AD-28" value="&lt;span style=&quot;text-align: left;&quot;&gt;event_type&lt;/span&gt;" style="ellipse;whiteSpace=wrap;html=1;align=center;" parent="1" vertex="1">
          <mxGeometry x="670" y="517.5" width="80" height="35" as="geometry" />
        </mxCell>
        <mxCell id="I0zVNPoHtymtXaUoH6AD-29" value="&lt;span style=&quot;font-weight: 700; text-align: left;&quot;&gt;Event_ID&amp;nbsp;&lt;/span&gt;" style="ellipse;whiteSpace=wrap;html=1;align=center;fontStyle=4;" parent="1" vertex="1">
          <mxGeometry x="770" y="505" width="80" height="30" as="geometry" />
        </mxCell>
        <mxCell id="I0zVNPoHtymtXaUoH6AD-33" value="&lt;span style=&quot;text-align: left;&quot;&gt;longitude&lt;/span&gt;" style="ellipse;whiteSpace=wrap;html=1;align=center;" parent="1" vertex="1">
          <mxGeometry x="275" y="520" width="80" height="40" as="geometry" />
        </mxCell>
        <mxCell id="I0zVNPoHtymtXaUoH6AD-34" value="&lt;span style=&quot;text-align: left;&quot;&gt;latitude&lt;/span&gt;" style="ellipse;whiteSpace=wrap;html=1;align=center;" parent="1" vertex="1">
          <mxGeometry x="360" y="512.5" width="65" height="40" as="geometry" />
        </mxCell>
        <mxCell id="I0zVNPoHtymtXaUoH6AD-35" value="&lt;span style=&quot;text-align: left;&quot;&gt;radius&lt;/span&gt;" style="ellipse;whiteSpace=wrap;html=1;align=center;" parent="1" vertex="1">
          <mxGeometry x="200" y="515" width="70" height="40" as="geometry" />
        </mxCell>
        <mxCell id="I0zVNPoHtymtXaUoH6AD-36" value="&lt;span style=&quot;text-align: left;&quot;&gt;name&lt;/span&gt;" style="ellipse;whiteSpace=wrap;html=1;align=center;" parent="1" vertex="1">
          <mxGeometry x="457.5" y="500" width="60" height="40" as="geometry" />
        </mxCell>
        <mxCell id="I0zVNPoHtymtXaUoH6AD-37" value="&lt;span style=&quot;font-weight: 700; text-align: left;&quot;&gt;Geo_ID&lt;/span&gt;" style="ellipse;whiteSpace=wrap;html=1;align=center;fontStyle=4;" parent="1" vertex="1">
          <mxGeometry x="467.5" y="450" width="65" height="40" as="geometry" />
        </mxCell>
        <mxCell id="I0zVNPoHtymtXaUoH6AD-43" value="&lt;span style=&quot;text-align: left;&quot;&gt;task_date&lt;/span&gt;" style="ellipse;whiteSpace=wrap;html=1;align=center;" parent="1" vertex="1">
          <mxGeometry x="425" y="255" width="70" height="35" as="geometry" />
        </mxCell>
        <mxCell id="I0zVNPoHtymtXaUoH6AD-44" value="&lt;span style=&quot;text-align: left;&quot;&gt;status&amp;nbsp;&lt;/span&gt;" style="ellipse;whiteSpace=wrap;html=1;align=center;" parent="1" vertex="1">
          <mxGeometry x="350" y="235" width="70" height="35" as="geometry" />
        </mxCell>
        <mxCell id="I0zVNPoHtymtXaUoH6AD-45" value="&lt;span style=&quot;text-align: left;&quot;&gt;task_description&lt;/span&gt;" style="ellipse;whiteSpace=wrap;html=1;align=center;" parent="1" vertex="1">
          <mxGeometry x="245" y="235" width="100" height="40" as="geometry" />
        </mxCell>
        <mxCell id="I0zVNPoHtymtXaUoH6AD-46" value="&lt;span style=&quot;font-weight: 700; text-align: left;&quot;&gt;Task_ID&lt;/span&gt;" style="ellipse;whiteSpace=wrap;html=1;align=center;fontStyle=4;" parent="1" vertex="1">
          <mxGeometry x="285" y="385" width="75" height="40" as="geometry" />
        </mxCell>
        <mxCell id="I0zVNPoHtymtXaUoH6AD-47" style="edgeStyle=orthogonalEdgeStyle;rounded=0;orthogonalLoop=1;jettySize=auto;html=1;exitX=0.75;exitY=0;exitDx=0;exitDy=0;entryX=0.286;entryY=0.857;entryDx=0;entryDy=0;entryPerimeter=0;" parent="1" source="0v_wOJQzlhhhtUlomyw2-22" target="I0zVNPoHtymtXaUoH6AD-43" edge="1">
          <mxGeometry relative="1" as="geometry" />
        </mxCell>
        <mxCell id="I0zVNPoHtymtXaUoH6AD-49" style="edgeStyle=orthogonalEdgeStyle;rounded=0;orthogonalLoop=1;jettySize=auto;html=1;exitX=0.25;exitY=0;exitDx=0;exitDy=0;entryX=0.79;entryY=0.925;entryDx=0;entryDy=0;entryPerimeter=0;" parent="1" source="0v_wOJQzlhhhtUlomyw2-22" target="I0zVNPoHtymtXaUoH6AD-45" edge="1">
          <mxGeometry relative="1" as="geometry" />
        </mxCell>
        <mxCell id="I0zVNPoHtymtXaUoH6AD-69" value="" style="edgeStyle=entityRelationEdgeStyle;fontSize=12;html=1;endArrow=ERoneToMany;rounded=0;exitX=1;exitY=0.25;exitDx=0;exitDy=0;" parent="1" source="0v_wOJQzlhhhtUlomyw2-1" target="0v_wOJQzlhhhtUlomyw2-29" edge="1">
          <mxGeometry width="100" height="100" relative="1" as="geometry">
            <mxPoint x="220" y="300" as="sourcePoint" />
            <mxPoint x="320" y="200" as="targetPoint" />
          </mxGeometry>
        </mxCell>
        <mxCell id="I0zVNPoHtymtXaUoH6AD-70" value="" style="edgeStyle=entityRelationEdgeStyle;fontSize=12;html=1;endArrow=ERmandOne;startArrow=ERmandOne;rounded=0;entryX=0;entryY=0.75;entryDx=0;entryDy=0;" parent="1" source="0v_wOJQzlhhhtUlomyw2-29" target="0v_wOJQzlhhhtUlomyw2-18" edge="1">
          <mxGeometry width="100" height="100" relative="1" as="geometry">
            <mxPoint x="306" y="199" as="sourcePoint" />
            <mxPoint x="400" y="151" as="targetPoint" />
          </mxGeometry>
        </mxCell>
        <mxCell id="I0zVNPoHtymtXaUoH6AD-71" value="" style="edgeStyle=entityRelationEdgeStyle;fontSize=12;html=1;endArrow=ERoneToMany;rounded=0;exitX=1;exitY=0.5;exitDx=0;exitDy=0;entryX=0;entryY=0.5;entryDx=0;entryDy=0;" parent="1" source="0v_wOJQzlhhhtUlomyw2-10" target="0v_wOJQzlhhhtUlomyw2-25" edge="1">
          <mxGeometry width="100" height="100" relative="1" as="geometry">
            <mxPoint x="320" y="260" as="sourcePoint" />
            <mxPoint x="420" y="160" as="targetPoint" />
          </mxGeometry>
        </mxCell>
        <mxCell id="I0zVNPoHtymtXaUoH6AD-72" value="" style="edgeStyle=entityRelationEdgeStyle;fontSize=12;html=1;endArrow=ERmandOne;startArrow=ERmandOne;rounded=0;entryX=0;entryY=0.25;entryDx=0;entryDy=0;exitX=1;exitY=0.5;exitDx=0;exitDy=0;" parent="1" source="0v_wOJQzlhhhtUlomyw2-25" target="0v_wOJQzlhhhtUlomyw2-18" edge="1">
          <mxGeometry width="100" height="100" relative="1" as="geometry">
            <mxPoint x="325" y="270" as="sourcePoint" />
            <mxPoint x="425" y="170" as="targetPoint" />
          </mxGeometry>
        </mxCell>
        <mxCell id="I0zVNPoHtymtXaUoH6AD-73" value="" style="edgeStyle=entityRelationEdgeStyle;fontSize=12;html=1;endArrow=ERmandOne;startArrow=ERmandOne;rounded=0;exitX=1;exitY=0.75;exitDx=0;exitDy=0;" parent="1" source="0v_wOJQzlhhhtUlomyw2-1" target="0v_wOJQzlhhhtUlomyw2-33" edge="1">
          <mxGeometry width="100" height="100" relative="1" as="geometry">
            <mxPoint x="150" y="410" as="sourcePoint" />
            <mxPoint x="240" y="330" as="targetPoint" />
            <Array as="points">
              <mxPoint x="210" y="320" />
              <mxPoint x="210" y="300" />
              <mxPoint x="180" y="340" />
              <mxPoint x="210" y="300" />
              <mxPoint x="210" y="320" />
            </Array>
          </mxGeometry>
        </mxCell>
        <mxCell id="I0zVNPoHtymtXaUoH6AD-75" value="" style="edgeStyle=entityRelationEdgeStyle;fontSize=12;html=1;endArrow=ERzeroToMany;startArrow=ERzeroToOne;rounded=0;entryX=1;entryY=0.5;entryDx=0;entryDy=0;" parent="1" source="0v_wOJQzlhhhtUlomyw2-33" target="0v_wOJQzlhhhtUlomyw2-21" edge="1">
          <mxGeometry width="100" height="100" relative="1" as="geometry">
            <mxPoint x="250" y="340" as="sourcePoint" />
            <mxPoint x="240" y="425" as="targetPoint" />
          </mxGeometry>
        </mxCell>
        <mxCell id="I0zVNPoHtymtXaUoH6AD-78" value="" style="edgeStyle=entityRelationEdgeStyle;fontSize=12;html=1;endArrow=ERmandOne;startArrow=ERmandOne;rounded=0;" parent="1" source="0v_wOJQzlhhhtUlomyw2-18" target="0v_wOJQzlhhhtUlomyw2-44" edge="1">
          <mxGeometry width="100" height="100" relative="1" as="geometry">
            <mxPoint x="360" y="300" as="sourcePoint" />
            <mxPoint x="460" y="200" as="targetPoint" />
          </mxGeometry>
        </mxCell>
        <mxCell id="I0zVNPoHtymtXaUoH6AD-80" value="" style="edgeStyle=entityRelationEdgeStyle;fontSize=12;html=1;endArrow=ERmandOne;startArrow=ERmandOne;rounded=0;entryX=0;entryY=0.25;entryDx=0;entryDy=0;exitX=1;exitY=0.5;exitDx=0;exitDy=0;" parent="1" source="0v_wOJQzlhhhtUlomyw2-44" target="0v_wOJQzlhhhtUlomyw2-19" edge="1">
          <mxGeometry width="100" height="100" relative="1" as="geometry">
            <mxPoint x="530" y="210" as="sourcePoint" />
            <mxPoint x="680" y="252.5" as="targetPoint" />
          </mxGeometry>
        </mxCell>
        <mxCell id="I0zVNPoHtymtXaUoH6AD-81" value="" style="edgeStyle=entityRelationEdgeStyle;fontSize=12;html=1;endArrow=ERoneToMany;rounded=0;exitX=0;exitY=0;exitDx=0;exitDy=0;entryX=1;entryY=0.5;entryDx=0;entryDy=0;" parent="1" source="0v_wOJQzlhhhtUlomyw2-19" target="0v_wOJQzlhhhtUlomyw2-36" edge="1">
          <mxGeometry width="100" height="100" relative="1" as="geometry">
            <mxPoint x="470" y="390" as="sourcePoint" />
            <mxPoint x="570" y="290" as="targetPoint" />
          </mxGeometry>
        </mxCell>
        <mxCell id="I0zVNPoHtymtXaUoH6AD-83" value="" style="edgeStyle=entityRelationEdgeStyle;fontSize=12;html=1;endArrow=ERmandOne;startArrow=ERmandOne;rounded=0;entryX=0;entryY=0.25;entryDx=0;entryDy=0;exitX=0.5;exitY=0;exitDx=0;exitDy=0;" parent="1" source="0v_wOJQzlhhhtUlomyw2-36" target="0v_wOJQzlhhhtUlomyw2-17" edge="1">
          <mxGeometry width="100" height="100" relative="1" as="geometry">
            <mxPoint x="500" y="340" as="sourcePoint" />
            <mxPoint x="600" y="240" as="targetPoint" />
            <Array as="points">
              <mxPoint x="570" y="190" />
              <mxPoint x="580" y="190" />
              <mxPoint x="560" y="180" />
            </Array>
          </mxGeometry>
        </mxCell>
        <mxCell id="I0zVNPoHtymtXaUoH6AD-84" value="" style="edgeStyle=entityRelationEdgeStyle;fontSize=12;html=1;endArrow=ERoneToMany;rounded=0;exitX=0;exitY=0.75;exitDx=0;exitDy=0;entryX=1;entryY=0.5;entryDx=0;entryDy=0;" parent="1" source="0v_wOJQzlhhhtUlomyw2-19" target="0v_wOJQzlhhhtUlomyw2-50" edge="1">
          <mxGeometry width="100" height="100" relative="1" as="geometry">
            <mxPoint x="470" y="400" as="sourcePoint" />
            <mxPoint x="570" y="300" as="targetPoint" />
          </mxGeometry>
        </mxCell>
        <mxCell id="I0zVNPoHtymtXaUoH6AD-85" value="" style="edgeStyle=entityRelationEdgeStyle;fontSize=12;html=1;endArrow=ERmandOne;startArrow=ERmandOne;rounded=0;exitX=1;exitY=0.5;exitDx=0;exitDy=0;entryX=0;entryY=0.5;entryDx=0;entryDy=0;" parent="1" source="0v_wOJQzlhhhtUlomyw2-22" target="0v_wOJQzlhhhtUlomyw2-50" edge="1">
          <mxGeometry width="100" height="100" relative="1" as="geometry">
            <mxPoint x="450" y="410" as="sourcePoint" />
            <mxPoint x="550" y="310" as="targetPoint" />
          </mxGeometry>
        </mxCell>
        <mxCell id="I0zVNPoHtymtXaUoH6AD-86" value="" style="edgeStyle=entityRelationEdgeStyle;fontSize=12;html=1;endArrow=ERmandOne;startArrow=ERmandOne;rounded=0;exitX=1;exitY=0.25;exitDx=0;exitDy=0;" parent="1" source="0v_wOJQzlhhhtUlomyw2-20" target="0v_wOJQzlhhhtUlomyw2-47" edge="1">
          <mxGeometry width="100" height="100" relative="1" as="geometry">
            <mxPoint x="400" y="500" as="sourcePoint" />
            <mxPoint x="500" y="400" as="targetPoint" />
          </mxGeometry>
        </mxCell>
        <mxCell id="I0zVNPoHtymtXaUoH6AD-87" value="" style="edgeStyle=entityRelationEdgeStyle;fontSize=12;html=1;endArrow=ERmandOne;startArrow=ERmandOne;rounded=0;entryX=0;entryY=0.5;entryDx=0;entryDy=0;" parent="1" source="0v_wOJQzlhhhtUlomyw2-47" target="0v_wOJQzlhhhtUlomyw2-23" edge="1">
          <mxGeometry width="100" height="100" relative="1" as="geometry">
            <mxPoint x="530" y="480" as="sourcePoint" />
            <mxPoint x="590" y="465" as="targetPoint" />
          </mxGeometry>
        </mxCell>
        <mxCell id="I0zVNPoHtymtXaUoH6AD-88" value="" style="edgeStyle=entityRelationEdgeStyle;fontSize=12;html=1;endArrow=ERoneToMany;rounded=0;exitX=1;exitY=0.25;exitDx=0;exitDy=0;entryX=0.5;entryY=1;entryDx=0;entryDy=0;" parent="1" source="0v_wOJQzlhhhtUlomyw2-23" target="0v_wOJQzlhhhtUlomyw2-40" edge="1">
          <mxGeometry width="100" height="100" relative="1" as="geometry">
            <mxPoint x="740" y="460" as="sourcePoint" />
            <mxPoint x="810" y="460" as="targetPoint" />
          </mxGeometry>
        </mxCell>
        <mxCell id="I0zVNPoHtymtXaUoH6AD-89" value="" style="edgeStyle=entityRelationEdgeStyle;fontSize=12;html=1;endArrow=ERoneToMany;rounded=0;exitX=1;exitY=0.75;exitDx=0;exitDy=0;entryX=0.5;entryY=1;entryDx=0;entryDy=0;" parent="1" source="0v_wOJQzlhhhtUlomyw2-19" target="0v_wOJQzlhhhtUlomyw2-40" edge="1">
          <mxGeometry width="100" height="100" relative="1" as="geometry">
            <mxPoint x="770" y="470" as="sourcePoint" />
            <mxPoint x="870" y="370" as="targetPoint" />
          </mxGeometry>
        </mxCell>
      </root>
    </mxGraphModel>
  </diagram>
</mxfile>
